<?xml version="1.0" encoding="UTF-8" standalone="no"?>
<!-- Created with Inkscape (http://www.inkscape.org/) -->

<svg
   xmlns:osb="http://www.openswatchbook.org/uri/2009/osb"
   xmlns:dc="http://purl.org/dc/elements/1.1/"
   xmlns:cc="http://creativecommons.org/ns#"
   xmlns:rdf="http://www.w3.org/1999/02/22-rdf-syntax-ns#"
   xmlns:svg="http://www.w3.org/2000/svg"
   xmlns="http://www.w3.org/2000/svg"
   xmlns:xlink="http://www.w3.org/1999/xlink"
   xmlns:sodipodi="http://sodipodi.sourceforge.net/DTD/sodipodi-0.dtd"
   xmlns:inkscape="http://www.inkscape.org/namespaces/inkscape"
   width="1000"
   height="700"
   id="svg2"
   version="1.1"
   inkscape:version="0.48.4 r9939"
   sodipodi:docname="Colesworth Shuttle.svg">
  <defs
     id="defs4">
    <pattern
       inkscape:stockid="Polka dots, medium white"
       id="Polkadots-medwhite"
       patternTransform="translate(0,0) scale(10,10)"
       height="10"
       width="10"
       patternUnits="userSpaceOnUse"
       inkscape:collect="always">
      <circle
         id="circle4978"
         r="0.15"
         cy="0.810"
         cx="2.567"
         style="fill:white;stroke:none" />
      <circle
         id="circle4980"
         r="0.15"
         cy="2.33"
         cx="3.048"
         style="fill:white;stroke:none" />
      <circle
         id="circle4982"
         r="0.15"
         cy="2.415"
         cx="4.418"
         style="fill:white;stroke:none" />
      <circle
         id="circle4984"
         r="0.15"
         cy="3.029"
         cx="1.844"
         style="fill:white;stroke:none" />
      <circle
         id="circle4986"
         r="0.15"
         cy="1.363"
         cx="6.08"
         style="fill:white;stroke:none" />
      <circle
         id="circle4988"
         r="0.15"
         cy="4.413"
         cx="5.819"
         style="fill:white;stroke:none" />
      <circle
         id="circle4990"
         r="0.15"
         cy="4.048"
         cx="4.305"
         style="fill:white;stroke:none" />
      <circle
         id="circle4992"
         r="0.15"
         cy="3.045"
         cx="5.541"
         style="fill:white;stroke:none" />
      <circle
         id="circle4994"
         r="0.15"
         cy="5.527"
         cx="4.785"
         style="fill:white;stroke:none" />
      <circle
         id="circle4996"
         r="0.15"
         cy="5.184"
         cx="2.667"
         style="fill:white;stroke:none" />
      <circle
         id="circle4998"
         r="0.15"
         cy="1.448"
         cx="7.965"
         style="fill:white;stroke:none" />
      <circle
         id="circle5000"
         r="0.15"
         cy="5.049"
         cx="7.047"
         style="fill:white;stroke:none" />
      <circle
         id="circle5002"
         r="0.15"
         cy="0.895"
         cx="4.340"
         style="fill:white;stroke:none" />
      <circle
         id="circle5004"
         r="0.15"
         cy="0.340"
         cx="7.125"
         style="fill:white;stroke:none" />
      <circle
         id="circle5006"
         r="0.15"
         cy="1.049"
         cx="9.553"
         style="fill:white;stroke:none" />
      <circle
         id="circle5008"
         r="0.15"
         cy="2.689"
         cx="7.006"
         style="fill:white;stroke:none" />
      <circle
         id="circle5010"
         r="0.15"
         cy="2.689"
         cx="8.909"
         style="fill:white;stroke:none" />
      <circle
         id="circle5012"
         r="0.15"
         cy="4.407"
         cx="9.315"
         style="fill:white;stroke:none" />
      <circle
         id="circle5014"
         r="0.15"
         cy="3.870"
         cx="7.820"
         style="fill:white;stroke:none" />
      <circle
         id="circle5016"
         r="0.15"
         cy="5.948"
         cx="8.270"
         style="fill:white;stroke:none" />
      <circle
         id="circle5018"
         r="0.15"
         cy="7.428"
         cx="7.973"
         style="fill:white;stroke:none" />
      <circle
         id="circle5020"
         r="0.15"
         cy="8.072"
         cx="9.342"
         style="fill:white;stroke:none" />
      <circle
         id="circle5022"
         r="0.15"
         cy="9.315"
         cx="8.206"
         style="fill:white;stroke:none" />
      <circle
         id="circle5024"
         r="0.15"
         cy="9.475"
         cx="9.682"
         style="fill:white;stroke:none" />
      <circle
         id="circle5026"
         r="0.15"
         cy="6.186"
         cx="9.688"
         style="fill:white;stroke:none" />
      <circle
         id="circle5028"
         r="0.15"
         cy="6.296"
         cx="3.379"
         style="fill:white;stroke:none" />
      <circle
         id="circle5030"
         r="0.15"
         cy="8.204"
         cx="2.871"
         style="fill:white;stroke:none" />
      <circle
         id="circle5032"
         r="0.15"
         cy="8.719"
         cx="4.59"
         style="fill:white;stroke:none" />
      <circle
         id="circle5034"
         r="0.15"
         cy="9.671"
         cx="3.181"
         style="fill:white;stroke:none" />
      <circle
         id="circle5036"
         r="0.15"
         cy="7.315"
         cx="5.734"
         style="fill:white;stroke:none" />
      <circle
         id="circle5038"
         r="0.15"
         cy="6.513"
         cx="6.707"
         style="fill:white;stroke:none" />
      <circle
         id="circle5040"
         r="0.15"
         cy="9.670"
         cx="5.730"
         style="fill:white;stroke:none" />
      <circle
         id="circle5042"
         r="0.15"
         cy="8.373"
         cx="6.535"
         style="fill:white;stroke:none" />
      <circle
         id="circle5044"
         r="0.15"
         cy="7.154"
         cx="4.37"
         style="fill:white;stroke:none" />
      <circle
         id="circle5046"
         r="0.15"
         cy="7.25"
         cx="0.622"
         style="fill:white;stroke:none" />
      <circle
         id="circle5048"
         r="0.15"
         cy="5.679"
         cx="0.831"
         style="fill:white;stroke:none" />
      <circle
         id="circle5050"
         r="0.15"
         cy="8.519"
         cx="1.257"
         style="fill:white;stroke:none" />
      <circle
         id="circle5052"
         r="0.15"
         cy="6.877"
         cx="1.989"
         style="fill:white;stroke:none" />
      <circle
         id="circle5054"
         r="0.15"
         cy="3.181"
         cx="0.374"
         style="fill:white;stroke:none" />
      <circle
         id="circle5056"
         r="0.15"
         cy="1.664"
         cx="1.166"
         style="fill:white;stroke:none" />
      <circle
         id="circle5058"
         r="0.15"
         cy="0.093"
         cx="1.151"
         style="fill:white;stroke:none" />
      <circle
         id="circle5060"
         r="0.15"
         cy="10.093"
         cx="1.151"
         style="fill:white;stroke:none" />
      <circle
         id="circle5062"
         r="0.15"
         cy="4.451"
         cx="1.302"
         style="fill:white;stroke:none" />
      <circle
         id="circle5064"
         r="0.15"
         cy="3.763"
         cx="3.047"
         style="fill:white;stroke:none" />
    </pattern>
    <linearGradient
       id="linearGradient5366">
      <stop
         id="stop5368"
         offset="0"
         style="stop-color:#141414;stop-opacity:1;" />
      <stop
         id="stop5370"
         offset="1"
         style="stop-color:#867e00;stop-opacity:1;" />
    </linearGradient>
    <linearGradient
       id="linearGradient5332"
       osb:paint="solid">
      <stop
         style="stop-color:#e3e3e3;stop-opacity:1;"
         offset="0"
         id="stop5334" />
    </linearGradient>
    <linearGradient
       id="linearGradient3840">
      <stop
         style="stop-color:#adab8c;stop-opacity:1;"
         offset="0"
         id="stop3842" />
      <stop
         style="stop-color:#000000;stop-opacity:1;"
         offset="1"
         id="stop3844" />
    </linearGradient>
    <linearGradient
       inkscape:collect="always"
       xlink:href="#linearGradient3840"
       id="linearGradient3846"
       x1="208.7704"
       y1="674.82635"
       x2="191.4137"
       y2="674.83679"
       gradientUnits="userSpaceOnUse"
       spreadMethod="repeat"
       gradientTransform="matrix(0.57827641,0,0,0.57827641,184.0988,286.66977)" />
    <linearGradient
       inkscape:collect="always"
       xlink:href="#linearGradient5366"
       id="linearGradient5364"
       x1="249.5"
       y1="324.95248"
       x2="750.5"
       y2="324.95248"
       gradientUnits="userSpaceOnUse" />
    <linearGradient
       inkscape:collect="always"
       xlink:href="#linearGradient5366"
       id="linearGradient5510"
       x1="249.5"
       y1="677.86218"
       x2="725.5"
       y2="677.86218"
       gradientUnits="userSpaceOnUse" />
    <linearGradient
       inkscape:collect="always"
       xlink:href="#linearGradient5366"
       id="linearGradient5554"
       gradientUnits="userSpaceOnUse"
       x1="249.5"
       y1="677.86218"
       x2="725.5"
       y2="677.86218" />
    <linearGradient
       inkscape:collect="always"
       xlink:href="#linearGradient5366"
       id="linearGradient5564"
       gradientUnits="userSpaceOnUse"
       x1="249.5"
       y1="677.86218"
       x2="725.5"
       y2="677.86218" />
    <linearGradient
       inkscape:collect="always"
       xlink:href="#linearGradient5366"
       id="linearGradient5566"
       gradientUnits="userSpaceOnUse"
       x1="249.5"
       y1="677.86218"
       x2="725.5"
       y2="677.86218" />
    <linearGradient
       inkscape:collect="always"
       xlink:href="#linearGradient5366"
       id="linearGradient5568"
       gradientUnits="userSpaceOnUse"
       x1="249.5"
       y1="677.86218"
       x2="725.5"
       y2="677.86218" />
    <linearGradient
       inkscape:collect="always"
       xlink:href="#linearGradient5366"
       id="linearGradient5598"
       gradientUnits="userSpaceOnUse"
       x1="249.5"
       y1="324.95248"
       x2="750.5"
       y2="324.95248"
       gradientTransform="translate(0,352.36218)" />
    <mask
       maskUnits="userSpaceOnUse"
       id="mask5594">
      <path
         sodipodi:nodetypes="zccsszsz"
         inkscape:connector-curvature="0"
         id="path5596"
         d="m 250,552.36218 c 0,100 50,100 50,100 l 0,50 c 0,0 -50,0 -50,100 0,100 172.786,31.34393 250,0 86.32788,-35.04358 250,-50 250,-125 0,-75 -163.82863,-89.57331 -250,-125 -77.07402,-31.68659 -250,-100 -250,0 z"
         style="fill:url(#linearGradient5598);fill-opacity:1;stroke:#000000;stroke-width:1px;stroke-linecap:butt;stroke-linejoin:miter;stroke-opacity:1" />
    </mask>
    <filter
       inkscape:collect="always"
       id="filter5646">
      <feGaussianBlur
         inkscape:collect="always"
         stdDeviation="2.065"
         id="feGaussianBlur5648" />
    </filter>
  </defs>
  <sodipodi:namedview
     id="base"
     pagecolor="#ffffff"
     bordercolor="#666666"
     borderopacity="1.0"
     inkscape:pageopacity="0.0"
     inkscape:pageshadow="2"
     inkscape:zoom="1"
     inkscape:cx="631.9118"
     inkscape:cy="419.6281"
     inkscape:document-units="px"
     inkscape:current-layer="layer1"
     showgrid="true"
     inkscape:window-width="1592"
     inkscape:window-height="847"
     inkscape:window-x="0"
     inkscape:window-y="0"
     inkscape:window-maximized="0"
     objecttolerance="20"
     gridtolerance="10000">
    <inkscape:grid
       type="xygrid"
       id="grid2985"
       empspacing="5"
       visible="true"
       enabled="true"
       snapvisiblegridlinesonly="true"
       spacingx="25px"
       spacingy="25px"
       dotted="false" />
  </sodipodi:namedview>
  <metadata
     id="metadata7">
    <rdf:RDF>
      <cc:Work
         rdf:about="">
        <dc:format>image/svg+xml</dc:format>
        <dc:type
           rdf:resource="http://purl.org/dc/dcmitype/StillImage" />
        <dc:title />
      </cc:Work>
    </rdf:RDF>
  </metadata>
  <g
     inkscape:label="Layer 1"
     inkscape:groupmode="layer"
     id="layer1"
     transform="translate(0,-352.36218)">
    <g
       transform="matrix(0.11331054,0,0,0.11331054,636.75462,669.95719)"
       style="stroke:#000000;stroke-linecap:round;stroke-linejoin:round;stroke-opacity:1"
       id="g6221">
      <rect
         style="fill:#4c4c4c;fill-opacity:1;fill-rule:nonzero;stroke:#000000;stroke-width:1.26200318;stroke-linecap:round;stroke-linejoin:round;stroke-opacity:1"
         id="rect6223"
         width="40.237995"
         height="24.737997"
         x="859.63098"
         y="452.49319" />
      <rect
         style="fill:#4c4c4c;fill-opacity:1;fill-rule:nonzero;stroke:#000000;stroke-width:1.12974811;stroke-linecap:round;stroke-linejoin:round;stroke-opacity:1"
         id="rect6225"
         width="96.620255"
         height="13.870252"
         x="853.31488"
         y="502.42706" />
      <rect
         ry="9.0900974"
         style="fill:#000000;fill-opacity:1;fill-rule:nonzero;stroke:#000000;stroke-width:1;stroke-linecap:round;stroke-linejoin:round;stroke-miterlimit:4;stroke-opacity:1;stroke-dasharray:none"
         id="rect6227"
         width="375"
         height="125"
         x="500"
         y="75"
         transform="translate(0,352.36218)" />
    </g>
    <g
       id="g6213"
       style="stroke:#000000;stroke-linecap:round;stroke-linejoin:round;stroke-opacity:1"
       transform="matrix(0.11331054,0,0,0.11331054,579.75462,543.95719)">
      <rect
         y="452.49319"
         x="859.63098"
         height="24.737997"
         width="40.237995"
         id="rect6200"
         style="fill:#4c4c4c;fill-opacity:1;fill-rule:nonzero;stroke:#000000;stroke-width:1.26200318;stroke-linecap:round;stroke-linejoin:round;stroke-opacity:1" />
      <rect
         y="502.42706"
         x="853.31488"
         height="13.870252"
         width="96.620255"
         id="rect6211"
         style="fill:#4c4c4c;fill-opacity:1;fill-rule:nonzero;stroke:#000000;stroke-width:1.12974811;stroke-linecap:round;stroke-linejoin:round;stroke-opacity:1" />
      <rect
         transform="translate(0,352.36218)"
         y="75"
         x="500"
         height="125"
         width="375"
         id="rect6196"
         style="fill:#000000;fill-opacity:1;fill-rule:nonzero;stroke:#000000;stroke-width:1;stroke-linecap:round;stroke-linejoin:round;stroke-miterlimit:4;stroke-opacity:1;stroke-dasharray:none"
         ry="9.0900974" />
    </g>
    <path
       style="fill:url(#linearGradient3846);fill-opacity:1;stroke:#000000;stroke-width:0.69671124px;stroke-linecap:butt;stroke-linejoin:miter;stroke-opacity:1"
       d="m 299.75408,649.45851 0,57.82764 -10.84269,7.22846 -10.84268,7.22845 -10.84268,7.22846 -10.84268,7.22845 0,-115.65528 10.84268,7.22845 10.84268,7.22846 10.84268,7.22845 z"
       id="path3050"
       inkscape:connector-curvature="0"
       sodipodi:nodetypes="ccccccccccc"
       inkscape:transform-center-x="22.033718" />
    <g
       id="g6241">
      <path
         transform="translate(0,352.36218)"
         sodipodi:nodetypes="zccsszsz"
         inkscape:connector-curvature="0"
         id="path3027"
         d="m 250,200 c 0,100 50,100 50,100 l 0,50 c 0,0 -50,0 -50,100 0,100 172.786,31.34393 250,0 86.32788,-35.04358 250,-50 250,-125 0,-75 -163.82863,-89.57331 -250,-125 -77.07402,-31.68659 -250,-100 -250,0 z"
         style="stroke:#000000;stroke-width:1px;stroke-linecap:butt;stroke-linejoin:miter;stroke-opacity:1;fill-opacity:1.0;fill:url(#linearGradient5364)" />
      <g
         mask="url(#mask5594)"
         id="g5556">
        <g
           id="g5628"
           style="stroke:url(#Polkadots-medwhite);stroke-opacity:1;stroke-width:8;stroke-miterlimit:4;stroke-dasharray:none;stroke-dashoffset:0;filter:url(#filter5646);fill:none;fill-opacity:1;fill-rule:nonzero">
          <path
             transform="translate(0,352.36218)"
             inkscape:connector-curvature="0"
             id="path5630"
             d="m 250,200 250,0 -75,-50 -50,50 -125,75 125,50 0,-125 125,125 25,-50 75,0 25,50 100,-50 0,-25 -100,0 -25,25 -100,-75 50,-25 75,75"
             style="fill:none;stroke:url(#Polkadots-medwhite);stroke-width:8;stroke-linecap:butt;stroke-linejoin:miter;stroke-opacity:1;stroke-miterlimit:4;stroke-dasharray:none;stroke-dashoffset:0;fill-opacity:1;fill-rule:nonzero" />
          <path
             style="fill:none;stroke:url(#Polkadots-medwhite);stroke-width:8;stroke-linecap:butt;stroke-linejoin:miter;stroke-opacity:1;stroke-miterlimit:4;stroke-dasharray:none;stroke-dashoffset:0;fill-opacity:1;fill-rule:nonzero"
             d="m 250,803.36218 250,0 -75,50 -50,-50 -125,-75 125,-50 0,125 125,-125 25,50 75,0 25,-50 100,50 0,25 -100,0 -25,-25 -100,75 50,25 75,-75"
             id="path5632"
             inkscape:connector-curvature="0" />
        </g>
        <g
           id="g5384"
           style="stroke:#ffffff;stroke-opacity:0.66666669;stroke-width:6;stroke-miterlimit:4;stroke-dasharray:1.50000000000000000, 1.50000000000000000;stroke-dashoffset:0;stroke-linejoin:bevel">
          <path
             transform="translate(0,352.36218)"
             inkscape:connector-curvature="0"
             id="path5378"
             d="m 250,200 250,0 -75,-50 -50,50 -125,75 125,50 0,-125 125,125 25,-50 75,0 25,50 100,-50 0,-25 -100,0 -25,25 -100,-75 50,-25 75,75"
             style="fill:none;stroke:#ffffff;stroke-width:6;stroke-linecap:butt;stroke-linejoin:bevel;stroke-opacity:0.66666669;stroke-miterlimit:4;stroke-dasharray:1.50000000000000000, 1.50000000000000000;stroke-dashoffset:0" />
          <path
             style="fill:none;stroke:#ffffff;stroke-width:6;stroke-linecap:butt;stroke-linejoin:bevel;stroke-opacity:0.66666669;stroke-miterlimit:4;stroke-dasharray:1.50000000000000000, 1.50000000000000000;stroke-dashoffset:0"
             d="m 250,803.36218 250,0 -75,50 -50,-50 -125,-75 125,-50 0,125 125,-125 25,50 75,0 25,-50 100,50 0,25 -100,0 -25,-25 -100,75 50,25 75,-75"
             id="path5382"
             inkscape:connector-curvature="0" />
        </g>
        <g
           id="g5498"
           style="stroke:url(#linearGradient5568);stroke-width:4;stroke-miterlimit:4;stroke-dasharray:none;stroke-linejoin:miter">
          <path
             inkscape:connector-curvature="0"
             id="path5502"
             d="m 250,803.36218 250,0 -75,50 -50,-50 -125,-75 125,-50 0,125 125,-125 25,50 75,0 25,-50 100,50 0,25 -100,0 -25,-25 -100,75 50,25 75,-75"
             style="fill:none;stroke:url(#linearGradient5566);stroke-width:4;stroke-linecap:butt;stroke-linejoin:miter;stroke-opacity:1;stroke-miterlimit:4;stroke-dasharray:none" />
          <path
             style="fill:none;stroke:url(#linearGradient5564);stroke-width:4;stroke-linecap:butt;stroke-linejoin:miter;stroke-opacity:1;stroke-miterlimit:4;stroke-dasharray:none"
             d="m 250,200 250,0 -75,-50 -50,50 -125,75 125,50 0,-125 125,125 25,-50 75,0 25,50 100,-50 0,-25 -100,0 -25,25 -100,-75 50,-25 75,75"
             id="path5500"
             inkscape:connector-curvature="0"
             transform="translate(0,352.36218)" />
        </g>
        <g
           style="stroke:#ffffff;stroke-opacity:1;stroke-width:1;stroke-miterlimit:4;stroke-dasharray:none;stroke-dashoffset:0"
           id="g5622">
          <path
             style="fill:none;stroke:#ffffff;stroke-width:1;stroke-linecap:butt;stroke-linejoin:miter;stroke-opacity:1;stroke-miterlimit:4;stroke-dasharray:none;stroke-dashoffset:0"
             d="m 250,200 250,0 -75,-50 -50,50 -125,75 125,50 0,-125 125,125 25,-50 75,0 25,50 100,-50 0,-25 -100,0 -25,25 -100,-75 50,-25 75,75"
             id="path5624"
             inkscape:connector-curvature="0"
             transform="translate(0,352.36218)" />
          <path
             inkscape:connector-curvature="0"
             id="path5626"
             d="m 250,803.36218 250,0 -75,50 -50,-50 -125,-75 125,-50 0,125 125,-125 25,50 75,0 25,-50 100,50 0,25 -100,0 -25,-25 -100,75 50,25 75,-75"
             style="fill:none;stroke:#ffffff;stroke-width:1;stroke-linecap:butt;stroke-linejoin:miter;stroke-opacity:1;stroke-miterlimit:4;stroke-dasharray:none;stroke-dashoffset:0" />
        </g>
      </g>
    </g>
  </g>
</svg>
